<svg xmlns="http://www.w3.org/2000/svg" width="1100" height="520" viewBox="0 0 1100 520">
<defs>
  <marker id="arrow" markerWidth="10" markerHeight="10" refX="8" refY="3" orient="auto" markerUnits="strokeWidth">
    <path d="M0,0 L0,6 L9,3 z" fill="#444"/>
  </marker>
</defs>
<rect x="0" y="0" width="1100" height="520" fill="white"/>
<rect x="40" y="30" width="1020" height="460" rx="16" fill="#fff" stroke="#777" stroke-width="2"/><rect x="250" y="70" width="85" height="36" fill="#eef4ff" stroke="#bbb"/><text x="292.5" y="93" text-anchor="middle" font-family="Arial, Helvetica, sans-serif" font-size="15" fill="#111"><tspan x="292.5" dy="0">Nov</tspan></text><rect x="335" y="70" width="85" height="36" fill="#eef4ff" stroke="#bbb"/><text x="377.5" y="93" text-anchor="middle" font-family="Arial, Helvetica, sans-serif" font-size="15" fill="#111"><tspan x="377.5" dy="0">Dec</tspan></text><rect x="420" y="70" width="85" height="36" fill="#eef4ff" stroke="#bbb"/><text x="462.5" y="93" text-anchor="middle" font-family="Arial, Helvetica, sans-serif" font-size="15" fill="#111"><tspan x="462.5" dy="0">Jan</tspan></text><rect x="505" y="70" width="85" height="36" fill="#eef4ff" stroke="#bbb"/><text x="547.5" y="93" text-anchor="middle" font-family="Arial, Helvetica, sans-serif" font-size="15" fill="#111"><tspan x="547.5" dy="0">Feb</tspan></text><rect x="590" y="70" width="85" height="36" fill="#eef4ff" stroke="#bbb"/><text x="632.5" y="93" text-anchor="middle" font-family="Arial, Helvetica, sans-serif" font-size="15" fill="#111"><tspan x="632.5" dy="0">Mar</tspan></text><rect x="60" y="70" width="190" height="36" fill="#f3f3f3" stroke="#bbb"/><text x="80" y="93" text-anchor="start" font-family="Arial, Helvetica, sans-serif" font-size="15" fill="#111"><tspan x="80" dy="0">Task</tspan></text><rect x="60" y="106" width="190" height="34" fill="white" stroke="#ddd"/><text x="80" y="128" text-anchor="start" font-family="Arial, Helvetica, sans-serif" font-size="13" fill="#111"><tspan x="80" dy="0">Topic Selection</tspan></text><rect x="250" y="106" width="85" height="34" fill="white" stroke="#eee"/><rect x="335" y="106" width="85" height="34" fill="white" stroke="#eee"/><rect x="420" y="106" width="85" height="34" fill="white" stroke="#eee"/><rect x="505" y="106" width="85" height="34" fill="white" stroke="#eee"/><rect x="590" y="106" width="85" height="34" fill="white" stroke="#eee"/><rect x="256" y="112" width="73" height="22" rx="8" fill="#8ecae6" stroke="#666"/><rect x="60" y="140" width="190" height="34" fill="white" stroke="#ddd"/><text x="80" y="162" text-anchor="start" font-family="Arial, Helvetica, sans-serif" font-size="13" fill="#111"><tspan x="80" dy="0">Requirement Analysis</tspan></text><rect x="250" y="140" width="85" height="34" fill="white" stroke="#eee"/><rect x="335" y="140" width="85" height="34" fill="white" stroke="#eee"/><rect x="420" y="140" width="85" height="34" fill="white" stroke="#eee"/><rect x="505" y="140" width="85" height="34" fill="white" stroke="#eee"/><rect x="590" y="140" width="85" height="34" fill="white" stroke="#eee"/><rect x="256" y="146" width="158" height="22" rx="8" fill="#8ecae6" stroke="#666"/><rect x="60" y="174" width="190" height="34" fill="white" stroke="#ddd"/><text x="80" y="196" text-anchor="start" font-family="Arial, Helvetica, sans-serif" font-size="13" fill="#111"><tspan x="80" dy="0">UI and Module Design</tspan></text><rect x="250" y="174" width="85" height="34" fill="white" stroke="#eee"/><rect x="335" y="174" width="85" height="34" fill="white" stroke="#eee"/><rect x="420" y="174" width="85" height="34" fill="white" stroke="#eee"/><rect x="505" y="174" width="85" height="34" fill="white" stroke="#eee"/><rect x="590" y="174" width="85" height="34" fill="white" stroke="#eee"/><rect x="341" y="180" width="73" height="22" rx="8" fill="#90be6d" stroke="#666"/><rect x="60" y="208" width="190" height="34" fill="white" stroke="#ddd"/><text x="80" y="230" text-anchor="start" font-family="Arial, Helvetica, sans-serif" font-size="13" fill="#111"><tspan x="80" dy="0">Firebase and Data Design</tspan></text><rect x="250" y="208" width="85" height="34" fill="white" stroke="#eee"/><rect x="335" y="208" width="85" height="34" fill="white" stroke="#eee"/><rect x="420" y="208" width="85" height="34" fill="white" stroke="#eee"/><rect x="505" y="208" width="85" height="34" fill="white" stroke="#eee"/><rect x="590" y="208" width="85" height="34" fill="white" stroke="#eee"/><rect x="341" y="214" width="73" height="22" rx="8" fill="#90be6d" stroke="#666"/><rect x="60" y="242" width="190" height="34" fill="white" stroke="#ddd"/><text x="80" y="264" text-anchor="start" font-family="Arial, Helvetica, sans-serif" font-size="13" fill="#111"><tspan x="80" dy="0">Auth and Home Module</tspan></text><rect x="250" y="242" width="85" height="34" fill="white" stroke="#eee"/><rect x="335" y="242" width="85" height="34" fill="white" stroke="#eee"/><rect x="420" y="242" width="85" height="34" fill="white" stroke="#eee"/><rect x="505" y="242" width="85" height="34" fill="white" stroke="#eee"/><rect x="590" y="242" width="85" height="34" fill="white" stroke="#eee"/><rect x="341" y="248" width="73" height="22" rx="8" fill="#f9c74f" stroke="#666"/><rect x="60" y="276" width="190" height="34" fill="white" stroke="#ddd"/><text x="80" y="298" text-anchor="start" font-family="Arial, Helvetica, sans-serif" font-size="13" fill="#111"><tspan x="80" dy="0">Transcription Module</tspan></text><rect x="250" y="276" width="85" height="34" fill="white" stroke="#eee"/><rect x="335" y="276" width="85" height="34" fill="white" stroke="#eee"/><rect x="420" y="276" width="85" height="34" fill="white" stroke="#eee"/><rect x="505" y="276" width="85" height="34" fill="white" stroke="#eee"/><rect x="590" y="276" width="85" height="34" fill="white" stroke="#eee"/><rect x="341" y="282" width="73" height="22" rx="8" fill="#f9c74f" stroke="#666"/><rect x="60" y="310" width="190" height="34" fill="white" stroke="#ddd"/><text x="80" y="332" text-anchor="start" font-family="Arial, Helvetica, sans-serif" font-size="13" fill="#111"><tspan x="80" dy="0">Community Module</tspan></text><rect x="250" y="310" width="85" height="34" fill="white" stroke="#eee"/><rect x="335" y="310" width="85" height="34" fill="white" stroke="#eee"/><rect x="420" y="310" width="85" height="34" fill="white" stroke="#eee"/><rect x="505" y="310" width="85" height="34" fill="white" stroke="#eee"/><rect x="590" y="310" width="85" height="34" fill="white" stroke="#eee"/><rect x="426" y="316" width="73" height="22" rx="8" fill="#f9844a" stroke="#666"/><rect x="60" y="344" width="190" height="34" fill="white" stroke="#ddd"/><text x="80" y="366" text-anchor="start" font-family="Arial, Helvetica, sans-serif" font-size="13" fill="#111"><tspan x="80" dy="0">Benefits and Settings</tspan></text><rect x="250" y="344" width="85" height="34" fill="white" stroke="#eee"/><rect x="335" y="344" width="85" height="34" fill="white" stroke="#eee"/><rect x="420" y="344" width="85" height="34" fill="white" stroke="#eee"/><rect x="505" y="344" width="85" height="34" fill="white" stroke="#eee"/><rect x="590" y="344" width="85" height="34" fill="white" stroke="#eee"/><rect x="426" y="350" width="73" height="22" rx="8" fill="#f9844a" stroke="#666"/><rect x="60" y="378" width="190" height="34" fill="white" stroke="#ddd"/><text x="80" y="400" text-anchor="start" font-family="Arial, Helvetica, sans-serif" font-size="13" fill="#111"><tspan x="80" dy="0">Admin Dashboard</tspan></text><rect x="250" y="378" width="85" height="34" fill="white" stroke="#eee"/><rect x="335" y="378" width="85" height="34" fill="white" stroke="#eee"/><rect x="420" y="378" width="85" height="34" fill="white" stroke="#eee"/><rect x="505" y="378" width="85" height="34" fill="white" stroke="#eee"/><rect x="590" y="378" width="85" height="34" fill="white" stroke="#eee"/><rect x="511" y="384" width="73" height="22" rx="8" fill="#f94144" stroke="#666"/><rect x="60" y="412" width="190" height="34" fill="white" stroke="#ddd"/><text x="80" y="434" text-anchor="start" font-family="Arial, Helvetica, sans-serif" font-size="13" fill="#111"><tspan x="80" dy="0">Sign Language Module</tspan></text><rect x="250" y="412" width="85" height="34" fill="white" stroke="#eee"/><rect x="335" y="412" width="85" height="34" fill="white" stroke="#eee"/><rect x="420" y="412" width="85" height="34" fill="white" stroke="#eee"/><rect x="505" y="412" width="85" height="34" fill="white" stroke="#eee"/><rect x="590" y="412" width="85" height="34" fill="white" stroke="#eee"/><rect x="511" y="418" width="73" height="22" rx="8" fill="#f94144" stroke="#666"/><rect x="60" y="446" width="190" height="34" fill="white" stroke="#ddd"/><text x="80" y="468" text-anchor="start" font-family="Arial, Helvetica, sans-serif" font-size="13" fill="#111"><tspan x="80" dy="0">Testing and Bug Fixing</tspan></text><rect x="250" y="446" width="85" height="34" fill="white" stroke="#eee"/><rect x="335" y="446" width="85" height="34" fill="white" stroke="#eee"/><rect x="420" y="446" width="85" height="34" fill="white" stroke="#eee"/><rect x="505" y="446" width="85" height="34" fill="white" stroke="#eee"/><rect x="590" y="446" width="85" height="34" fill="white" stroke="#eee"/><rect x="596" y="452" width="73" height="22" rx="8" fill="#6a4c93" stroke="#666"/><rect x="60" y="480" width="190" height="34" fill="white" stroke="#ddd"/><text x="80" y="502" text-anchor="start" font-family="Arial, Helvetica, sans-serif" font-size="13" fill="#111"><tspan x="80" dy="0">Report Preparation</tspan></text><rect x="250" y="480" width="85" height="34" fill="white" stroke="#eee"/><rect x="335" y="480" width="85" height="34" fill="white" stroke="#eee"/><rect x="420" y="480" width="85" height="34" fill="white" stroke="#eee"/><rect x="505" y="480" width="85" height="34" fill="white" stroke="#eee"/><rect x="590" y="480" width="85" height="34" fill="white" stroke="#eee"/><rect x="596" y="486" width="73" height="22" rx="8" fill="#6a4c93" stroke="#666"/>
</svg>
